<svg xmlns="http://www.w3.org/2000/svg" width="255.208" height="241.697" viewBox="0 0 255.208 241.697"><g transform="translate(-7249.995 -553.774)"><g transform="translate(7334.774 553.774)"><path d="M68.226,136.451a68.225,68.225,0,1,1,48.243-19.982,68.226,68.226,0,0,1-48.243,19.982Zm0-127.923a59.7,59.7,0,1,0,59.7,59.7,59.7,59.7,0,0,0-59.7-59.7Z" fill="rgba(255,255,255,0.5)"/><path d="M203.188,134.377a10.66,10.66,0,1,1,10.66-10.66,4.264,4.264,0,0,0,8.528,0,19.218,19.218,0,0,0-14.924-18.705v-4.748a4.264,4.264,0,1,0-8.528,0v4.748a19.186,19.186,0,0,0,4.264,37.894,10.66,10.66,0,1,1-10.66,10.66,4.264,4.264,0,1,0-8.528,0,19.218,19.218,0,0,0,14.924,18.7v4.748a4.264,4.264,0,0,0,8.528,0V172.27a19.186,19.186,0,0,0-4.264-37.894Z" transform="translate(-134.963 -70.415)" fill="rgba(255,255,255,0.5)"/></g><path d="M264.541,485.949l28.1-11.594c5.66-2.333,11.269-4.8,17-6.953a14.608,14.608,0,0,1,19.428,17.05c-1.043,4.574-3.989,7.615-8.023,9.846q-28.07,15.528-56.078,31.17c-3.988,2.226-8,4.456-11.769,7.02-9,6.117-19.079,8.516-29.714,9.182-15.6.977-30.724-1.58-45.836-5.356-15.6-3.9-31.5-4.952-47.379-1.108-7.26,1.757-14.08,4.535-19.79,9.485a8.046,8.046,0,0,0-2.256,3.8c-1.24,4.514-4.311,7.186-9,7.253-5.155.073-10.312.06-15.467.006-5.689-.06-9.259-3.551-9.435-9.278-.11-3.6-.028-7.2-.028-10.8V475.539c0-7.775,3.21-10.985,10.973-11.007,3.5-.01,7.014.17,10.5-.04,6.312-.381,11.252,1.172,12.684,8.4,3.117-1.958,5.921-3.849,8.845-5.534,10.689-6.158,22-10.7,34.535-9.852,6.724.454,13.42,2.144,20,3.8a240.365,240.365,0,0,0,70.845,7,35.344,35.344,0,0,1,6.988.184A17.2,17.2,0,0,1,264.2,483.206C264.315,483.965,264.39,484.729,264.541,485.949Zm-156.2,48.5c4.753-2.122,8.963-4.382,13.421-5.925,17.051-5.9,34.44-5.112,51.893-2.149,11.385,1.932,22.346,5.88,34.038,6.474,15.75.8,30.345-1.077,44.374-9.756,20.984-12.981,42.952-24.371,64.5-36.444,3.778-2.117,5.016-5.009,3.5-8.091-1.535-3.123-4.6-4.048-8.46-2.46q-25.216,10.377-50.407,20.8a8.863,8.863,0,0,0-2.482,1.469A17.817,17.817,0,0,1,246.4,502.85q-29.775-.016-59.549,0a13.048,13.048,0,0,1-1.458-.052c-2.581-.291-4.262-1.989-4.285-4.306-.023-2.407,1.8-4.241,4.477-4.455.773-.062,1.556-.019,2.334-.019q29.336,0,58.674-.016c5.122-.009,8.95-3.7,8.949-8.422a8.537,8.537,0,0,0-8.634-8.477c-5.542-.129-11.092.131-16.637.048-7.874-.119-15.876.434-23.591-.781-16.015-2.522-31.848-6.188-47.821-9.014a49.3,49.3,0,0,0-14.733-.537c-12.813,1.671-23.537,8.182-33.645,15.851a5.179,5.179,0,0,0-2.183,4.683c.079,14.7.041,29.392.041,44.089Zm-9.108,12.386V473.556H83.393v73.279Z" transform="translate(7175.73 239.676)" fill="rgba(255,255,255,0.5)"/></g></svg>