<?xml version="1.0" encoding="utf-8"?>
<!-- Generator: Adobe Illustrator 24.0.1, SVG Export Plug-In . SVG Version: 6.00 Build 0)  -->
<svg version="1.1" id="home" xmlns="http://www.w3.org/2000/svg" xmlns:xlink="http://www.w3.org/1999/xlink" x="0px" y="0px"
	 viewBox="0 0 224.01 224.01" style="enable-background:new 0 0 224.01 224.01;" xml:space="preserve">
<style type="text/css">
	.st0{fill:none;}
	.st1{stroke:#000000;stroke-width:0.14;stroke-miterlimit:10;}
	.st2{fill:#FD3B4C;}
	.st3{fill-rule:evenodd;clip-rule:evenodd;fill:#F4863B;}
	.st4{fill:#FFFFFF;}
	.st5{fill-rule:evenodd;clip-rule:evenodd;fill:#5C7BFC;}
	.st6{fill-rule:evenodd;clip-rule:evenodd;fill:#FEB92B;}
	.st7{fill-rule:evenodd;clip-rule:evenodd;fill:#3EAF66;}
	.st8{fill:#8F4DDB;}
	.st9{fill:#74C4D6;}
	.st10{fill:#1D1E22;}
	.st11{fill:#E6E6E6;}
	.st12{fill:#F1F2F0;}
	.st13{opacity:0.32;}
	.st14{opacity:0.5;}
	.st15{clip-path:url(#SVGID_2_);fill:#FFFFFF;}
</style>
<g class="st13">
	<path class="st4" d="M191.21,32.81c-43.74-43.74-114.66-43.74-158.4,0C11.8,53.81,0,82.3,0,112.01c0,61.86,50.15,112,112.01,111.99
		c29.72,0.08,58.24-11.73,79.2-32.8C234.95,147.46,234.95,76.55,191.21,32.81z M112.01,210.01c-54.12,0-98-43.88-98-98
		s43.88-98,98-98c54.1,0.06,97.94,43.9,98,98C210.01,166.13,166.13,210.01,112.01,210.01z"/>
	<path class="st4" d="M112.01,70.01c9.66,0,17.5,7.84,17.5,17.5c0,3.87,3.13,7,7,7c3.87,0,7-3.13,7-7
		c-0.02-14.69-10.18-27.42-24.5-30.71v-7.79c0-3.87-3.13-7-7-7c-3.87,0-7,3.13-7,7v7.79c-16.96,3.88-27.56,20.78-23.68,37.73
		c3.27,14.31,16,24.46,30.68,24.47c9.66,0,17.5,7.84,17.5,17.5s-7.84,17.5-17.5,17.5s-17.5-7.84-17.5-17.5c0-3.87-3.13-7-7-7
		c-3.87,0-7,3.13-7,7c0.02,14.69,10.18,27.42,24.5,30.71v7.79c0,3.87,3.13,7,7,7c3.87,0,7-3.13,7-7v-7.79
		c16.96-3.88,27.56-20.78,23.68-37.73c-3.27-14.31-16-24.46-30.68-24.47c-9.66,0-17.5-7.84-17.5-17.5S102.34,70.01,112.01,70.01z"/>
</g>
</svg>
