<svg xmlns="http://www.w3.org/2000/svg" xmlns:xlink="http://www.w3.org/1999/xlink" width="149" height="145" viewBox="0 0 149 145"><defs><clipPath id="a"><rect width="149" height="145" transform="translate(972 128)" fill="#fff" stroke="#707070" stroke-width="1"/></clipPath></defs><g transform="translate(-972 -128)" clip-path="url(#a)"><g transform="translate(897 52)" opacity="0.5"><path d="M112,224A112,112,0,1,1,224,112,112.124,112.124,0,0,1,112,224Zm0-210a98,98,0,1,0,98,98A98.108,98.108,0,0,0,112,14Zm0,0" fill="#fff"/><path d="M296,229.667a6.947,6.947,0,0,1-4.948-2.054l-49-49A7,7,0,0,1,240,173.667V108.332a7,7,0,0,1,14,0v62.431l46.948,46.948A7.005,7.005,0,0,1,296,229.667Zm0,0" transform="translate(-135 -56.999)" fill="#fff"/></g></g></svg>