<?xml version="1.0" encoding="utf-8"?>
<!-- Generator: Adobe Illustrator 24.0.1, SVG Export Plug-In . SVG Version: 6.00 Build 0)  -->
<svg version="1.1" id="home" xmlns="http://www.w3.org/2000/svg" xmlns:xlink="http://www.w3.org/1999/xlink" x="0px" y="0px"
	 viewBox="0 0 154.15 184" style="enable-background:new 0 0 154.15 184;" xml:space="preserve">
<style type="text/css">
	.st0{fill:none;}
	.st1{stroke:#000000;stroke-width:0.14;stroke-miterlimit:10;}
	.st2{fill:#FD3B4C;}
	.st3{fill-rule:evenodd;clip-rule:evenodd;fill:#F4863B;}
	.st4{fill:#FFFFFF;}
	.st5{fill-rule:evenodd;clip-rule:evenodd;fill:#5C7BFC;}
	.st6{fill-rule:evenodd;clip-rule:evenodd;fill:#FEB92B;}
	.st7{fill-rule:evenodd;clip-rule:evenodd;fill:#3EAF66;}
	.st8{fill:#8F4DDB;}
	.st9{fill:#74C4D6;}
	.st10{fill:#1D1E22;}
	.st11{fill:#E6E6E6;}
	.st12{fill:#F1F2F0;}
	.st13{opacity:0.32;}
	.st14{opacity:0.5;}
	.st15{clip-path:url(#SVGID_2_);fill:#FFFFFF;}
</style>
<g class="st13">
	<path class="st4" d="M42.81,78.3c4.37,4.44,9.3,7.82,14.64,10.07c5.34,2.25,11.18,3.38,17.35,3.38h0.02l0.02,0l2.2-0.05l0.02,0
		l0.02,0c11.46-0.53,21.45-5.04,29.68-13.4c8.79-8.91,13.24-19.82,13.24-32.43c0-12.6-4.45-23.51-13.24-32.43
		C97.99,4.52,87.23,0,74.8,0h-0.02l-0.02,0l-2.21,0.05l-0.02,0l-0.02,0C61.04,0.59,51.06,5.09,42.81,13.45
		c-4.36,4.44-7.7,9.43-9.91,14.84c-2.21,5.41-3.33,11.33-3.33,17.59c0,6.26,1.12,12.18,3.33,17.59
		C35.11,68.88,38.45,73.87,42.81,78.3z M44.25,32.87c1.62-3.97,4.02-7.54,7.34-10.91c3.08-3.13,6.31-5.43,9.88-7.05
		c3.56-1.61,7.35-2.49,11.57-2.69l1.75-0.04l1.96,0.05c4.18,0.22,7.92,1.11,11.45,2.72c3.54,1.62,6.75,3.91,9.8,7.01
		c3.32,3.37,5.71,6.93,7.33,10.9c1.62,3.97,2.41,8.23,2.41,13c0,4.77-0.79,9.02-2.41,13c-1.62,3.97-4.02,7.54-7.33,10.91
		c-3.08,3.12-6.31,5.43-9.89,7.05c-3.56,1.61-7.35,2.5-11.57,2.69l-1.94,0.04l-1.93-0.05c-8.06-0.44-15.16-3.71-21.1-9.74
		c-3.31-3.37-5.71-6.93-7.33-10.91c-1.62-3.98-2.41-8.23-2.41-13.01C41.84,41.1,42.63,36.85,44.25,32.87z"/>
	<path class="st4" d="M153.78,140.63c-0.25-3.55-0.75-7.42-1.49-11.5c-0.76-4.18-1.72-8.08-2.86-11.59
		c-1.2-3.73-2.83-7.41-4.87-10.96c-2.13-3.71-4.63-6.94-7.45-9.62c-3-2.84-6.65-5.12-10.82-6.75c-4.18-1.64-8.8-2.47-13.73-2.47
		h-0.05l-0.05,0l-0.61,0.03l-0.04,0l-0.04,0c-1.97,0.18-3.96,1.06-7.33,3.24l-7.33,4.69c-2.2,1.38-5.24,2.71-9.03,3.93
		c-3.65,1.17-7.35,1.77-11,1.77s-7.35-0.59-11-1.77c-3.78-1.21-6.82-2.53-9.03-3.93l-8.42-5.38l-0.01-0.01l-0.01-0.01
		c-3.04-1.88-4.94-2.57-7.01-2.57h-0.03l-0.03,0l-1.99,0.05l-0.02,0l-0.02,0c-4.16,0.2-8.08,1.02-11.64,2.42
		c-4.18,1.64-7.82,3.91-10.83,6.75c-2.79,2.65-5.3,5.88-7.44,9.62c-2.03,3.55-3.67,7.23-4.87,10.96c-1.17,3.63-2.13,7.53-2.86,11.59
		c-0.74,4.08-1.24,7.94-1.49,11.5C0.12,144.05,0,147.64,0,151.31c0,4.89,0.8,9.38,2.37,13.35c1.59,4.01,3.99,7.55,7.13,10.53
		c6.2,5.85,14.36,8.81,24.24,8.81h86.66h0.02l0.02,0l1.98-0.04l0.02,0l0.02,0c8.96-0.39,16.42-3.34,22.17-8.77
		c6.31-5.95,9.51-13.98,9.51-23.88C154.15,147.67,154.03,144.07,153.78,140.63z M140.44,160c-0.94,2.46-2.34,4.54-4.26,6.36
		c-3.58,3.38-8.24,5.16-14.23,5.43l-1.75,0.04H33.77l-1.9-0.05c-5.83-0.32-10.38-2.09-13.91-5.41c-1.92-1.82-3.31-3.9-4.26-6.36
		c-0.96-2.52-1.43-5.36-1.43-8.68c0-3.45,0.11-6.76,0.34-9.83c0.23-3.18,0.67-6.6,1.32-10.19c0.67-3.66,1.5-7.03,2.47-10.03
		c0.95-2.96,2.25-5.87,3.85-8.65c1.55-2.71,3.32-5.01,5.25-6.83l0,0l0,0c1.84-1.74,4.14-3.17,6.86-4.23l0,0l0,0
		c2.3-0.91,4.89-1.44,7.7-1.58l0.87-0.02l9.48,6.02l0.02,0.02l0.03,0.02l1.59,0.94l0.02,0.01l0.02,0.01
		c2.81,1.57,6.24,3.01,10.2,4.28c4.9,1.56,9.87,2.36,14.78,2.36c4.91,0,9.88-0.79,14.77-2.36c4.77-1.52,8.76-3.29,11.86-5.25l0,0
		l0,0l7.37-4.71l1.75-1.1l0.39-0.23l1.4,0.05c2.59,0.18,5,0.7,7.16,1.55c2.71,1.06,5.02,2.48,6.85,4.23
		c1.96,1.86,3.73,4.16,5.26,6.84c1.61,2.8,2.9,5.71,3.85,8.65c0.97,3,1.8,6.37,2.47,10.03c0.67,3.67,1.11,7.09,1.32,10.18l0,0l0,0
		c0.23,3.21,0.34,6.52,0.34,9.84C141.88,154.64,141.41,157.48,140.44,160z"/>
</g>
</svg>
