<?xml version="1.0" encoding="utf-8"?>
<!-- Generator: Adobe Illustrator 24.0.1, SVG Export Plug-In . SVG Version: 6.00 Build 0)  -->
<svg version="1.1" id="home" xmlns="http://www.w3.org/2000/svg" xmlns:xlink="http://www.w3.org/1999/xlink" x="0px" y="0px"
	 viewBox="0 0 224 224" style="enable-background:new 0 0 224 224;" xml:space="preserve">
<style type="text/css">
	.st0{fill:none;}
	.st1{stroke:#000000;stroke-width:0.14;stroke-miterlimit:10;}
	.st2{fill:#FD3B4C;}
	.st3{fill-rule:evenodd;clip-rule:evenodd;fill:#F4863B;}
	.st4{fill:#FFFFFF;}
	.st5{fill-rule:evenodd;clip-rule:evenodd;fill:#5C7BFC;}
	.st6{fill-rule:evenodd;clip-rule:evenodd;fill:#FEB92B;}
	.st7{fill-rule:evenodd;clip-rule:evenodd;fill:#3EAF66;}
	.st8{fill:#8F4DDB;}
	.st9{fill:#74C4D6;}
	.st10{fill:#1D1E22;}
	.st11{fill:#E6E6E6;}
	.st12{fill:#F1F2F0;}
	.st13{opacity:0.32;}
	.st14{opacity:0.5;}
	.st15{clip-path:url(#SVGID_2_);fill:#FFFFFF;}
</style>
<g class="st14">
	<path class="st4" d="M112,0C50.14,0,0,50.14,0,112s50.14,112,112,112c61.83-0.07,111.93-50.17,112-112C224,50.14,173.86,0,112,0z
		 M112,210c-54.12,0-98-43.88-98-98s43.88-98,98-98c54.1,0.06,97.94,43.9,98,98C210,166.12,166.12,210,112,210z"/>
	<path class="st4" d="M119,113.76V51.33c0-3.87-3.13-7-7-7c-3.87,0-7,3.13-7,7v65.34c0,1.86,0.74,3.63,2.05,4.95l49,49
		c1.31,1.32,3.09,2.06,4.95,2.05c1.85,0,3.63-0.74,4.94-2.05c2.74-2.73,2.74-7.17,0-9.91L119,113.76z"/>
</g>
</svg>
