<?xml version="1.0" encoding="utf-8"?>
<!-- Generator: Adobe Illustrator 24.0.1, SVG Export Plug-In . SVG Version: 6.00 Build 0)  -->
<svg version="1.1" id="home" xmlns="http://www.w3.org/2000/svg" xmlns:xlink="http://www.w3.org/1999/xlink" x="0px" y="0px"
	 viewBox="0 0 167.52 170.05" style="enable-background:new 0 0 167.52 170.05;" xml:space="preserve">
<style type="text/css">
	.st0{fill:none;}
	.st1{stroke:#000000;stroke-width:0.14;stroke-miterlimit:10;}
	.st2{fill:#FD3B4C;}
	.st3{fill-rule:evenodd;clip-rule:evenodd;fill:#F4863B;}
	.st4{fill:#FFFFFF;}
	.st5{fill-rule:evenodd;clip-rule:evenodd;fill:#5C7BFC;}
	.st6{fill-rule:evenodd;clip-rule:evenodd;fill:#FEB92B;}
	.st7{fill-rule:evenodd;clip-rule:evenodd;fill:#3EAF66;}
	.st8{fill:#8F4DDB;}
	.st9{fill:#74C4D6;}
	.st10{fill:#1D1E22;}
	.st11{fill:#E6E6E6;}
	.st12{fill:#F1F2F0;}
	.st13{opacity:0.32;}
	.st14{opacity:0.5;}
	.st15{clip-path:url(#SVGID_2_);fill:#FFFFFF;}
</style>
<g class="st13">
	<defs>
		<path id="SVGID_1_" class="st13" d="M77.14,1.6c3.76-1.93,8.18-2.12,12.1-0.53l1.14,0.53l70.42,36.51
			c3.68,1.8,6.19,5.35,6.67,9.43l0.05,1.08v72.82c-0.06,4.08-2.22,7.83-5.72,9.93l-1.01,0.57l-70.42,36.51
			c-3.76,1.93-8.18,2.12-12.1,0.53l-1.14-0.53L6.72,131.94c-3.68-1.8-6.19-5.35-6.67-9.43L0,121.43V48.61
			c0.06-4.08,2.22-7.83,5.72-9.93l1-0.57L77.14,1.6z M152.58,56.86L91.23,93.97v58.43l61.35-31.81V56.86z M14.94,56.86v63.73
			l61.35,31.81V93.97L14.94,56.86z M83.75,13.77L22.84,45.34L83.75,82.2l60.93-36.86L83.75,13.77z"/>
	</defs>
	<use xlink:href="#SVGID_1_"  style="overflow:visible;fill:#FFFFFF;"/>
	<clipPath id="SVGID_2_">
		<use xlink:href="#SVGID_1_"  style="overflow:visible;"/>
	</clipPath>
	<path id="Path_199" class="st15" d="M-40.05-36.34h247.62v242.72H-40.05V-36.34z"/>
</g>
</svg>
