<?xml version="1.0" encoding="utf-8"?>
<!-- Generator: Adobe Illustrator 24.0.1, SVG Export Plug-In . SVG Version: 6.00 Build 0)  -->
<svg version="1.1" id="home" xmlns="http://www.w3.org/2000/svg" xmlns:xlink="http://www.w3.org/1999/xlink" x="0px" y="0px"
	 viewBox="0 0 124.8 142.16" style="enable-background:new 0 0 124.8 142.16;" xml:space="preserve">
<style type="text/css">
	.st0{fill:none;}
	.st1{stroke:#000000;stroke-width:0.14;stroke-miterlimit:10;}
	.st2{fill:#FD3B4C;}
	.st3{fill-rule:evenodd;clip-rule:evenodd;fill:#F4863B;}
	.st4{fill:#FFFFFF;}
	.st5{fill-rule:evenodd;clip-rule:evenodd;fill:#5C7BFC;}
	.st6{fill-rule:evenodd;clip-rule:evenodd;fill:#FEB92B;}
	.st7{fill-rule:evenodd;clip-rule:evenodd;fill:#3EAF66;}
	.st8{fill:#8F4DDB;}
	.st9{fill:#74C4D6;}
	.st10{fill:#1D1E22;}
	.st11{fill:#E6E6E6;}
	.st12{fill:#F1F2F0;}
	.st13{opacity:0.32;}
	.st14{opacity:0.5;}
	.st15{clip-path:url(#SVGID_2_);fill:#FFFFFF;}
</style>
<g class="st13">
	<path class="st4" d="M124.73,28.47c-0.43-3.21-3.2-5.67-6.44-5.71c-3.59-0.05-6.62,2.87-6.67,6.51l0,92.3l-0.05,0.89
		c-0.42,3.73-3.56,6.53-7.32,6.53c0,0-0.01,0-0.01,0l-83.7,0l-0.89-0.05c-3.73-0.42-6.54-3.57-6.53-7.33l0-101.01l0.05-0.89
		c0.42-3.73,3.56-6.53,7.32-6.53c0,0,0.01,0,0.01,0l97.74,0l0.72-0.06c3.32-0.38,5.83-3.18,5.84-6.52c0-1.76-0.67-3.41-1.91-4.66
		C121.64,0.69,120,0,118.24,0L20.51,0l-1.1,0.06C8.54,0.67,0.01,9.67,0,20.55l0,102.2c0.66,10.84,9.68,19.34,20.55,19.35l83.73,0.06
		l1.1-0.06c10.87-0.6,19.4-9.61,19.41-20.5l0-92.4L124.73,28.47z"/>
	<path class="st4" d="M96.86,53.7c0.01-3.63-2.93-6.58-6.56-6.59l-56.53,0c-3.33,0.38-5.84,3.2-5.83,6.55
		c0.01,3.6,2.95,6.54,6.55,6.55l0,0l56.54,0C94.34,59.84,96.85,57.04,96.86,53.7z"/>
	<path class="st4" d="M34.49,74.92l-0.72,0.06c-3.33,0.38-5.84,3.2-5.83,6.55c0.01,3.6,2.95,6.54,6.55,6.56h0l34.96-0.06l0.74-0.06
		c3.22-0.44,5.62-3.11,5.71-6.37c0.06-3.6-2.82-6.6-6.44-6.69L34.49,74.92z"/>
</g>
</svg>
