<svg xmlns="http://www.w3.org/2000/svg" xmlns:xlink="http://www.w3.org/1999/xlink" width="156" height="148" viewBox="0 0 156 148"><defs><clipPath id="a"><rect width="156" height="148" transform="translate(708 128)" fill="#fff" stroke="#707070" stroke-width="1"/></clipPath><clipPath id="b"><path d="M77.643-22.1a14.528,14.528,0,0,1,12.095-.529l1.14.528L161.3,14.408a12.058,12.058,0,0,1,6.671,9.426l.053,1.078v72.82a11.8,11.8,0,0,1-5.717,9.93l-1.006.575-70.42,36.511a14.527,14.527,0,0,1-12.1.529l-1.139-.528L7.224,108.239A12.058,12.058,0,0,1,.553,98.813L.5,97.734V24.914a11.8,11.8,0,0,1,5.718-9.93l1-.575Zm75.435,55.259L91.728,70.269V128.7l61.35-31.808Zm-137.64,0V96.888L76.789,128.7V70.269ZM84.255-9.929,23.337,21.646,84.255,58.5l60.926-36.858Z" transform="translate(-0.5 23.7)" fill="#fff"/></clipPath></defs><g transform="translate(-708 -128)" clip-path="url(#a)"><g transform="translate(724 154)"><g transform="translate(-50.804 -48.024)" opacity="0.323"><g transform="translate(0)" clip-path="url(#b)"><path d="M-4.5-28.7H243.124V214.017H-4.5Z" transform="translate(-35.551 -7.635)" fill="#fff"/></g></g></g></g></svg>